{
    "asset" : {
        "generator" : "Khronos glTF Blender I/O v0.9.36",
        "version" : "2.0"
    },
    "scene" : 0,
    "scenes" : [
        {
            "name" : "Scene",
            "nodes" : [
                0,
                1,
                2,
                3,
                4,
                5,
                6
            ]
        }
    ],
    "nodes" : [
        {
            "mesh" : 0,
            "name" : "Gun1",
            "rotation" : [
                0,
                1,
                0,
                -1.6292068494294654e-07
            ],
            "translation" : [
                0,
                2.2559149265289307,
                -0.5855664610862732
            ]
        },
        {
            "mesh" : 1,
            "name" : "Turret",
            "rotation" : [
                0,
                0,
                0,
                -1
            ],
            "translation" : [
                0,
                1.8414409160614014,
                0.25113368034362793
            ]
        },
        {
            "mesh" : 2,
            "name" : "Hull",
            "rotation" : [
                0,
                0,
                0,
                -1
            ],
            "translation" : [
                0,
                0.8330451846122742,
                0.22295522689819336
            ]
        },
        {
            "mesh" : 3,
            "name" : "Wheels_Right",
            "rotation" : [
                0,
                1,
                0,
                -1.6292068494294654e-07
            ],
            "translation" : [
                0,
                0.02182769775390625,
                0.22295522689819336
            ]
        },
        {
            "mesh" : 4,
            "name" : "Wheels_Left",
            "rotation" : [
                0,
                1,
                0,
                -1.6292068494294654e-07
            ],
            "translation" : [
                0,
                0.02182769775390625,
                0.22295522689819336
            ]
        },
        {
            "mesh" : 5,
            "name" : "Track_Right",
            "rotation" : [
                0,
                1,
                0,
                -1.6292068494294654e-07
            ],
            "translation" : [
                0,
                0.02182769775390625,
                0.22295522689819336
            ]
        },
        {
            "mesh" : 6,
            "name" : "Track_Left",
            "rotation" : [
                0,
                1,
                0,
                -1.6292068494294654e-07
            ],
            "translation" : [
                0,
                0.02182769775390625,
                0.22295522689819336
            ]
        }
    ],
    "materials" : [
        {
            "doubleSided" : true,
            "name" : "Material_1.004",
            "normalTexture" : {
                "index" : 0,
                "texCoord" : 0
            },
            "pbrMetallicRoughness" : {
                "baseColorTexture" : {
                    "index" : 1,
                    "texCoord" : 0
                },
                "metallicFactor" : 0.19999998807907104,
                "roughnessFactor" : 0.800000011920929
            }
        },
        {
            "doubleSided" : true,
            "name" : "Material_1",
            "normalTexture" : {
                "index" : 2,
                "texCoord" : 0
            },
            "pbrMetallicRoughness" : {
                "baseColorTexture" : {
                    "index" : 3,
                    "texCoord" : 0
                },
                "metallicFactor" : 0.20000000298023224,
                "roughnessFactor" : 0.699999988079071
            }
        }
    ],
    "meshes" : [
        {
            "name" : "Object_1.003",
            "primitives" : [
                {
                    "attributes" : {
                        "POSITION" : 0,
                        "NORMAL" : 1,
                        "TEXCOORD_0" : 2
                    },
                    "indices" : 3,
                    "material" : 0
                }
            ]
        },
        {
            "name" : "Object_1.002",
            "primitives" : [
                {
                    "attributes" : {
                        "POSITION" : 4,
                        "NORMAL" : 5,
                        "TEXCOORD_0" : 6
                    },
                    "indices" : 7,
                    "material" : 0
                }
            ]
        },
        {
            "name" : "Object_1.001",
            "primitives" : [
                {
                    "attributes" : {
                        "POSITION" : 8,
                        "NORMAL" : 9,
                        "TEXCOORD_0" : 10
                    },
                    "indices" : 11,
                    "material" : 0
                }
            ]
        },
        {
            "name" : "Object_4",
            "primitives" : [
                {
                    "attributes" : {
                        "POSITION" : 12,
                        "NORMAL" : 13,
                        "TEXCOORD_0" : 14
                    },
                    "indices" : 15,
                    "material" : 0
                }
            ]
        },
        {
            "name" : "Object_3",
            "primitives" : [
                {
                    "attributes" : {
                        "POSITION" : 16,
                        "NORMAL" : 17,
                        "TEXCOORD_0" : 18
                    },
                    "indices" : 19,
                    "material" : 0
                }
            ]
        },
        {
            "name" : "Object_2",
            "primitives" : [
                {
                    "attributes" : {
                        "POSITION" : 20,
                        "NORMAL" : 21,
                        "TEXCOORD_0" : 22
                    },
                    "indices" : 23,
                    "material" : 1
                }
            ]
        },
        {
            "name" : "Object_1",
            "primitives" : [
                {
                    "attributes" : {
                        "POSITION" : 24,
                        "NORMAL" : 25,
                        "TEXCOORD_0" : 26
                    },
                    "indices" : 23,
                    "material" : 1
                }
            ]
        }
    ],
    "textures" : [
        {
            "source" : 0
        },
        {
            "source" : 1
        },
        {
            "source" : 2
        },
        {
            "source" : 3
        }
    ],
    "images" : [
        {
            "mimeType" : "image/png",
            "name" : "M4_Sherman_NM",
            "uri" : "M4_Sherman_NM.png"
        },
        {
            "mimeType" : "image/png",
            "name" : "M4_Sherman_dds",
            "uri" : "M4_Sherman_dds.png"
        },
        {
            "mimeType" : "image/png",
            "name" : "M4A3_track_NM",
            "uri" : "M4A3_track_NM.png"
        },
        {
            "mimeType" : "image/png",
            "name" : "M4A3_track",
            "uri" : "M4A3_track.png"
        }
    ],
    "accessors" : [
        {
            "bufferView" : 0,
            "componentType" : 5126,
            "count" : 783,
            "max" : [
                0.6653031706809998,
                0.27345719933509827,
                2.9958150386810303
            ],
            "min" : [
                -0.6640974879264832,
                -0.21407224237918854,
                -0.04701494425535202
            ],
            "type" : "VEC3"
        },
        {
            "bufferView" : 1,
            "componentType" : 5126,
            "count" : 783,
            "type" : "VEC3"
        },
        {
            "bufferView" : 2,
            "componentType" : 5126,
            "count" : 783,
            "type" : "VEC2"
        },
        {
            "bufferView" : 3,
            "componentType" : 5123,
            "count" : 783,
            "type" : "SCALAR"
        },
        {
            "bufferView" : 4,
            "componentType" : 5126,
            "count" : 2362,
            "max" : [
                1.0101648569107056,
                2.298617362976074,
                1.5528011322021484
            ],
            "min" : [
                -1.0271884202957153,
                -0.0008042046101763844,
                -1.002503752708435
            ],
            "type" : "VEC3"
        },
        {
            "bufferView" : 5,
            "componentType" : 5126,
            "count" : 2362,
            "type" : "VEC3"
        },
        {
            "bufferView" : 6,
            "componentType" : 5126,
            "count" : 2362,
            "type" : "VEC2"
        },
        {
            "bufferView" : 7,
            "componentType" : 5123,
            "count" : 2397,
            "type" : "SCALAR"
        },
        {
            "bufferView" : 8,
            "componentType" : 5126,
            "count" : 11075,
            "max" : [
                1.303425669670105,
                1.1121987104415894,
                3.0559844970703125
            ],
            "min" : [
                -1.3016269207000732,
                -0.4312729835510254,
                -2.6726131439208984
            ],
            "type" : "VEC3"
        },
        {
            "bufferView" : 9,
            "componentType" : 5126,
            "count" : 11075,
            "type" : "VEC3"
        },
        {
            "bufferView" : 10,
            "componentType" : 5126,
            "count" : 11075,
            "type" : "VEC2"
        },
        {
            "bufferView" : 11,
            "componentType" : 5123,
            "count" : 11199,
            "type" : "SCALAR"
        },
        {
            "bufferView" : 12,
            "componentType" : 5126,
            "count" : 6257,
            "max" : [
                -0.6898306012153625,
                1.0666157007217407,
                2.7392406463623047
            ],
            "min" : [
                -1.2649948596954346,
                0.05975224822759628,
                -2.7801945209503174
            ],
            "type" : "VEC3"
        },
        {
            "bufferView" : 13,
            "componentType" : 5126,
            "count" : 6257,
            "type" : "VEC3"
        },
        {
            "bufferView" : 14,
            "componentType" : 5126,
            "count" : 6257,
            "type" : "VEC2"
        },
        {
            "bufferView" : 15,
            "componentType" : 5123,
            "count" : 6432,
            "type" : "SCALAR"
        },
        {
            "bufferView" : 16,
            "componentType" : 5126,
            "count" : 6254,
            "max" : [
                1.2671037912368774,
                1.0666157007217407,
                2.7392406463623047
            ],
            "min" : [
                0.6915251612663269,
                0.059752244502305984,
                -2.7801945209503174
            ],
            "type" : "VEC3"
        },
        {
            "bufferView" : 17,
            "componentType" : 5126,
            "count" : 6254,
            "type" : "VEC3"
        },
        {
            "bufferView" : 18,
            "componentType" : 5126,
            "count" : 6254,
            "type" : "VEC2"
        },
        {
            "bufferView" : 19,
            "componentType" : 5123,
            "count" : 6432,
            "type" : "SCALAR"
        },
        {
            "bufferView" : 20,
            "componentType" : 5126,
            "count" : 756,
            "max" : [
                -0.8355411887168884,
                1.0882537364959717,
                2.7591426372528076
            ],
            "min" : [
                -1.259891152381897,
                -9.53674295089968e-09,
                -2.8493871688842773
            ],
            "type" : "VEC3"
        },
        {
            "bufferView" : 21,
            "componentType" : 5126,
            "count" : 756,
            "type" : "VEC3"
        },
        {
            "bufferView" : 22,
            "componentType" : 5126,
            "count" : 756,
            "type" : "VEC2"
        },
        {
            "bufferView" : 23,
            "componentType" : 5123,
            "count" : 768,
            "type" : "SCALAR"
        },
        {
            "bufferView" : 24,
            "componentType" : 5126,
            "count" : 756,
            "max" : [
                1.259891152381897,
                1.0882537364959717,
                2.7591426372528076
            ],
            "min" : [
                0.8355411887168884,
                -9.53674295089968e-09,
                -2.8493871688842773
            ],
            "type" : "VEC3"
        },
        {
            "bufferView" : 25,
            "componentType" : 5126,
            "count" : 756,
            "type" : "VEC3"
        },
        {
            "bufferView" : 26,
            "componentType" : 5126,
            "count" : 756,
            "type" : "VEC2"
        }
    ],
    "bufferViews" : [
        {
            "buffer" : 0,
            "byteLength" : 9396,
            "byteOffset" : 0
        },
        {
            "buffer" : 0,
            "byteLength" : 9396,
            "byteOffset" : 9396
        },
        {
            "buffer" : 0,
            "byteLength" : 6264,
            "byteOffset" : 18792
        },
        {
            "buffer" : 0,
            "byteLength" : 1566,
            "byteOffset" : 25056
        },
        {
            "buffer" : 0,
            "byteLength" : 28344,
            "byteOffset" : 26624
        },
        {
            "buffer" : 0,
            "byteLength" : 28344,
            "byteOffset" : 54968
        },
        {
            "buffer" : 0,
            "byteLength" : 18896,
            "byteOffset" : 83312
        },
        {
            "buffer" : 0,
            "byteLength" : 4794,
            "byteOffset" : 102208
        },
        {
            "buffer" : 0,
            "byteLength" : 132900,
            "byteOffset" : 107004
        },
        {
            "buffer" : 0,
            "byteLength" : 132900,
            "byteOffset" : 239904
        },
        {
            "buffer" : 0,
            "byteLength" : 88600,
            "byteOffset" : 372804
        },
        {
            "buffer" : 0,
            "byteLength" : 22398,
            "byteOffset" : 461404
        },
        {
            "buffer" : 0,
            "byteLength" : 75084,
            "byteOffset" : 483804
        },
        {
            "buffer" : 0,
            "byteLength" : 75084,
            "byteOffset" : 558888
        },
        {
            "buffer" : 0,
            "byteLength" : 50056,
            "byteOffset" : 633972
        },
        {
            "buffer" : 0,
            "byteLength" : 12864,
            "byteOffset" : 684028
        },
        {
            "buffer" : 0,
            "byteLength" : 75048,
            "byteOffset" : 696892
        },
        {
            "buffer" : 0,
            "byteLength" : 75048,
            "byteOffset" : 771940
        },
        {
            "buffer" : 0,
            "byteLength" : 50032,
            "byteOffset" : 846988
        },
        {
            "buffer" : 0,
            "byteLength" : 12864,
            "byteOffset" : 897020
        },
        {
            "buffer" : 0,
            "byteLength" : 9072,
            "byteOffset" : 909884
        },
        {
            "buffer" : 0,
            "byteLength" : 9072,
            "byteOffset" : 918956
        },
        {
            "buffer" : 0,
            "byteLength" : 6048,
            "byteOffset" : 928028
        },
        {
            "buffer" : 0,
            "byteLength" : 1536,
            "byteOffset" : 934076
        },
        {
            "buffer" : 0,
            "byteLength" : 9072,
            "byteOffset" : 935612
        },
        {
            "buffer" : 0,
            "byteLength" : 9072,
            "byteOffset" : 944684
        },
        {
            "buffer" : 0,
            "byteLength" : 6048,
            "byteOffset" : 953756
        }
    ],
    "buffers" : [
        {
            "byteLength" : 959804,
            "uri" : "M4_Full.bin"
        }
    ]
}
