{
    "asset" : {
        "generator" : "Khronos glTF Blender I/O v1.1.45",
        "version" : "2.0"
    },
    "scene" : 0,
    "scenes" : [
        {
            "name" : "Scene",
            "nodes" : [
                0
            ]
        }
    ],
    "nodes" : [
        {
            "mesh" : 0,
            "name" : "MVK_House_04",
            "rotation" : [
                1,
                0,
                0,
                -1.3435885648505064e-07
            ],
            "scale" : [
                0.009999999776482582,
                0.009999999776482582,
                0.009999999776482582
            ]
        }
    ],
    "materials" : [
        {
            "doubleSided" : true,
            "emissiveFactor" : [
                0,
                0,
                0
            ],
            "name" : "MVK Houses 01.001",
            "normalTexture" : {
                "index" : 0,
                "scale" : 0.1400168091058731,
                "texCoord" : 0
            },
            "pbrMetallicRoughness" : {
                "baseColorTexture" : {
                    "index" : 1,
                    "texCoord" : 0
                },
                "metallicFactor" : 0,
                "roughnessFactor" : 1
            }
        }
    ],
    "meshes" : [
        {
            "name" : "Plane.001",
            "primitives" : [
                {
                    "attributes" : {
                        "POSITION" : 0,
                        "NORMAL" : 1,
                        "TEXCOORD_0" : 2
                    },
                    "indices" : 3,
                    "material" : 0
                }
            ]
        }
    ],
    "textures" : [
        {
            "source" : 0
        },
        {
            "source" : 1
        }
    ],
    "images" : [
        {
            "mimeType" : "image/png",
            "name" : "NM",
            "uri" : "NM.png"
        },
        {
            "mimeType" : "image/png",
            "name" : "T",
            "uri" : "T.png"
        }
    ],
    "accessors" : [
        {
            "bufferView" : 0,
            "componentType" : 5126,
            "count" : 1471,
            "max" : [
                61.9999885559082,
                0,
                61.9999885559082
            ],
            "min" : [
                -62,
                -439.9999694824219,
                -80.00001525878906
            ],
            "type" : "VEC3"
        },
        {
            "bufferView" : 1,
            "componentType" : 5126,
            "count" : 1471,
            "type" : "VEC3"
        },
        {
            "bufferView" : 2,
            "componentType" : 5126,
            "count" : 1471,
            "type" : "VEC2"
        },
        {
            "bufferView" : 3,
            "componentType" : 5123,
            "count" : 1686,
            "type" : "SCALAR"
        }
    ],
    "bufferViews" : [
        {
            "buffer" : 0,
            "byteLength" : 17652,
            "byteOffset" : 0
        },
        {
            "buffer" : 0,
            "byteLength" : 17652,
            "byteOffset" : 17652
        },
        {
            "buffer" : 0,
            "byteLength" : 11768,
            "byteOffset" : 35304
        },
        {
            "buffer" : 0,
            "byteLength" : 3372,
            "byteOffset" : 47072
        }
    ],
    "buffers" : [
        {
            "byteLength" : 50444,
            "uri" : "House.bin"
        }
    ]
}
