{
    "asset" : {
        "generator" : "Khronos glTF Blender I/O v0.9.36",
        "version" : "2.0"
    },
    "scene" : 0,
    "scenes" : [
        {
            "name" : "Scene",
            "nodes" : [
                0
            ]
        }
    ],
    "nodes" : [
        {
            "mesh" : 0,
            "name" : "StageMap.001",
            "rotation" : [
                0,
                0.7071067690849304,
                0,
                0.7071068286895752
            ],
            "translation" : [
                -30,
                0,
                60
            ]
        }
    ],
    "materials" : [
        {
            "doubleSided" : true,
            "name" : "Material.008",
            "normalTexture" : {
                "index" : 0,
                "texCoord" : 0
            },
            "pbrMetallicRoughness" : {
                "baseColorTexture" : {
                    "index" : 1,
                    "texCoord" : 0
                },
                "metallicFactor" : 0,
                "roughnessFactor" : 1
            }
        },
        {
            "doubleSided" : true,
            "name" : "Material.009",
            "normalTexture" : {
                "index" : 2,
                "texCoord" : 0
            },
            "pbrMetallicRoughness" : {
                "baseColorTexture" : {
                    "index" : 3,
                    "texCoord" : 0
                },
                "metallicFactor" : 0,
                "roughnessFactor" : 1
            }
        }
    ],
    "meshes" : [
        {
            "name" : "obj1.004",
            "primitives" : [
                {
                    "attributes" : {
                        "POSITION" : 0,
                        "NORMAL" : 1,
                        "TEXCOORD_0" : 2,
                        "COLOR_0" : 3
                    },
                    "indices" : 4,
                    "material" : 0
                },
                {
                    "attributes" : {
                        "POSITION" : 5,
                        "NORMAL" : 6,
                        "TEXCOORD_0" : 7,
                        "COLOR_0" : 8
                    },
                    "indices" : 9,
                    "material" : 1
                }
            ]
        }
    ],
    "textures" : [
        {
            "source" : 0
        },
        {
            "source" : 1
        },
        {
            "source" : 2
        },
        {
            "source" : 3
        }
    ],
    "images" : [
        {
            "mimeType" : "image/png",
            "name" : "grs_normal",
            "uri" : "grs_normal.png"
        },
        {
            "mimeType" : "image/png",
            "name" : "grs",
            "uri" : "grs.png"
        },
        {
            "mimeType" : "image/png",
            "name" : "stone_normal",
            "uri" : "stone_normal.png"
        },
        {
            "mimeType" : "image/png",
            "name" : "stone",
            "uri" : "stone.png"
        }
    ],
    "accessors" : [
        {
            "bufferView" : 0,
            "componentType" : 5126,
            "count" : 39336,
            "max" : [
                120.00001525878906,
                12.057140350341797,
                90
            ],
            "min" : [
                0,
                -0.28823161125183105,
                -30.00000762939453
            ],
            "type" : "VEC3"
        },
        {
            "bufferView" : 1,
            "componentType" : 5126,
            "count" : 39336,
            "type" : "VEC3"
        },
        {
            "bufferView" : 2,
            "componentType" : 5126,
            "count" : 39336,
            "type" : "VEC2"
        },
        {
            "bufferView" : 3,
            "componentType" : 5126,
            "count" : 39336,
            "type" : "VEC4"
        },
        {
            "bufferView" : 4,
            "componentType" : 5123,
            "count" : 59004,
            "type" : "SCALAR"
        },
        {
            "bufferView" : 5,
            "componentType" : 5126,
            "count" : 664,
            "max" : [
                88.79997253417969,
                3.495972156524658,
                58.79996871948242
            ],
            "min" : [
                21.599979400634766,
                -2.384185791015625e-06,
                10.799989700317383
            ],
            "type" : "VEC3"
        },
        {
            "bufferView" : 6,
            "componentType" : 5126,
            "count" : 664,
            "type" : "VEC3"
        },
        {
            "bufferView" : 7,
            "componentType" : 5126,
            "count" : 664,
            "type" : "VEC2"
        },
        {
            "bufferView" : 8,
            "componentType" : 5126,
            "count" : 664,
            "type" : "VEC4"
        },
        {
            "bufferView" : 9,
            "componentType" : 5123,
            "count" : 996,
            "type" : "SCALAR"
        }
    ],
    "bufferViews" : [
        {
            "buffer" : 0,
            "byteLength" : 472032,
            "byteOffset" : 0
        },
        {
            "buffer" : 0,
            "byteLength" : 472032,
            "byteOffset" : 472032
        },
        {
            "buffer" : 0,
            "byteLength" : 314688,
            "byteOffset" : 944064
        },
        {
            "buffer" : 0,
            "byteLength" : 629376,
            "byteOffset" : 1258752
        },
        {
            "buffer" : 0,
            "byteLength" : 118008,
            "byteOffset" : 1888128
        },
        {
            "buffer" : 0,
            "byteLength" : 7968,
            "byteOffset" : 2006136
        },
        {
            "buffer" : 0,
            "byteLength" : 7968,
            "byteOffset" : 2014104
        },
        {
            "buffer" : 0,
            "byteLength" : 5312,
            "byteOffset" : 2022072
        },
        {
            "buffer" : 0,
            "byteLength" : 10624,
            "byteOffset" : 2027384
        },
        {
            "buffer" : 0,
            "byteLength" : 1992,
            "byteOffset" : 2038008
        }
    ],
    "buffers" : [
        {
            "byteLength" : 2040000,
            "uri" : "StageMap.bin"
        }
    ]
}
