{
    "asset" : {
        "generator" : "Khronos glTF Blender I/O v0.9.36",
        "version" : "2.0"
    },
    "scene" : 0,
    "scenes" : [
        {
            "name" : "Scene",
            "nodes" : [
                0
            ]
        }
    ],
    "nodes" : [
        {
            "mesh" : 0,
            "name" : "Object_2",
            "rotation" : [
                0,
                1,
                0,
                -1.6292068494294654e-07
            ],
            "translation" : [
                -1.128227949142456,
                0,
                0
            ]
        }
    ],
    "materials" : [
        {
            "doubleSided" : true,
            "name" : "Material.002",
            "normalTexture" : {
                "index" : 0,
                "texCoord" : 0
            },
            "pbrMetallicRoughness" : {
                "baseColorTexture" : {
                    "index" : 1,
                    "texCoord" : 0
                },
                "metallicFactor" : 0,
                "roughnessFactor" : 0.20000000298023224
            }
        }
    ],
    "meshes" : [
        {
            "name" : "Object_2",
            "primitives" : [
                {
                    "attributes" : {
                        "POSITION" : 0,
                        "NORMAL" : 1,
                        "TEXCOORD_0" : 2
                    },
                    "indices" : 3,
                    "material" : 0
                }
            ]
        }
    ],
    "textures" : [
        {
            "source" : 0
        },
        {
            "source" : 1
        }
    ],
    "images" : [
        {
            "mimeType" : "image/png",
            "name" : "Track_NM",
            "uri" : "Track_NM.png"
        },
        {
            "mimeType" : "image/png",
            "name" : "Track",
            "uri" : "Track.png"
        }
    ],
    "accessors" : [
        {
            "bufferView" : 0,
            "componentType" : 5126,
            "count" : 1008,
            "max" : [
                -0.8792657256126404,
                1.0351084470748901,
                2.7628653049468994
            ],
            "min" : [
                -1.3758320808410645,
                -0.002338523743674159,
                -2.8080825805664062
            ],
            "type" : "VEC3"
        },
        {
            "bufferView" : 1,
            "componentType" : 5126,
            "count" : 1008,
            "type" : "VEC3"
        },
        {
            "bufferView" : 2,
            "componentType" : 5126,
            "count" : 1008,
            "type" : "VEC2"
        },
        {
            "bufferView" : 3,
            "componentType" : 5123,
            "count" : 1008,
            "type" : "SCALAR"
        }
    ],
    "bufferViews" : [
        {
            "buffer" : 0,
            "byteLength" : 12096,
            "byteOffset" : 0
        },
        {
            "buffer" : 0,
            "byteLength" : 12096,
            "byteOffset" : 12096
        },
        {
            "buffer" : 0,
            "byteLength" : 8064,
            "byteOffset" : 24192
        },
        {
            "buffer" : 0,
            "byteLength" : 2016,
            "byteOffset" : 32256
        }
    ],
    "buffers" : [
        {
            "byteLength" : 34272,
            "uri" : "T43_Track.bin"
        }
    ]
}
