{
    "asset" : {
        "generator" : "Khronos glTF Blender I/O v0.9.36",
        "version" : "2.0"
    },
    "scene" : 0,
    "scenes" : [
        {
            "name" : "Scene",
            "nodes" : [
                0,
                1,
                2,
                3,
                4,
                5
            ]
        }
    ],
    "nodes" : [
        {
            "mesh" : 0,
            "name" : "Object_1.003",
            "rotation" : [
                0,
                1,
                0,
                -1.6292068494294654e-07
            ],
            "translation" : [
                0.08256317675113678,
                2.0197958946228027,
                -0.9548299312591553
            ]
        },
        {
            "mesh" : 1,
            "name" : "Object_1.002",
            "rotation" : [
                0,
                0,
                0,
                -1
            ],
            "translation" : [
                -0.04128167778253555,
                1.590061902999878,
                0.10035449266433716
            ]
        },
        {
            "mesh" : 2,
            "name" : "Object_1.001",
            "rotation" : [
                0,
                0,
                0,
                -1
            ],
            "translation" : [
                -0.04128161072731018,
                0.8615086078643799,
                0.8544754981994629
            ]
        },
        {
            "mesh" : 3,
            "name" : "Object_3",
            "rotation" : [
                0,
                1,
                0,
                -1.6292068494294654e-07
            ],
            "translation" : [
                -0.04128161072731018,
                0,
                0.8544754981994629
            ]
        },
        {
            "mesh" : 4,
            "name" : "Object_2",
            "rotation" : [
                0,
                1,
                0,
                -1.6292068494294654e-07
            ],
            "translation" : [
                -0.04128161072731018,
                0,
                0.8544754981994629
            ]
        },
        {
            "mesh" : 5,
            "name" : "Object_1",
            "rotation" : [
                0,
                1,
                0,
                -1.6292068494294654e-07
            ],
            "translation" : [
                -0.04128161072731018,
                0,
                0.8544754981994629
            ]
        }
    ],
    "materials" : [
        {
            "doubleSided" : true,
            "name" : "Material_1.003",
            "normalTexture" : {
                "index" : 0,
                "texCoord" : 0
            },
            "pbrMetallicRoughness" : {
                "baseColorTexture" : {
                    "index" : 1,
                    "texCoord" : 0
                },
                "metallicFactor" : 0,
                "roughnessFactor" : 1
            }
        },
        {
            "doubleSided" : true,
            "name" : "Material_1.002",
            "normalTexture" : {
                "index" : 2,
                "texCoord" : 0
            },
            "pbrMetallicRoughness" : {
                "baseColorTexture" : {
                    "index" : 3,
                    "texCoord" : 0
                },
                "metallicFactor" : 0,
                "roughnessFactor" : 1
            }
        },
        {
            "doubleSided" : true,
            "name" : "Material_1.001",
            "normalTexture" : {
                "index" : 4,
                "texCoord" : 0
            },
            "pbrMetallicRoughness" : {
                "baseColorTexture" : {
                    "index" : 5,
                    "texCoord" : 0
                },
                "metallicFactor" : 0,
                "roughnessFactor" : 1
            }
        },
        {
            "doubleSided" : true,
            "name" : "Material_1",
            "normalTexture" : {
                "index" : 6,
                "texCoord" : 0
            },
            "pbrMetallicRoughness" : {
                "baseColorTexture" : {
                    "index" : 7,
                    "texCoord" : 0
                },
                "metallicFactor" : 0,
                "roughnessFactor" : 1
            }
        },
        {
            "doubleSided" : true,
            "name" : "Material.002",
            "normalTexture" : {
                "index" : 8,
                "texCoord" : 0
            },
            "pbrMetallicRoughness" : {
                "baseColorTexture" : {
                    "index" : 9,
                    "texCoord" : 0
                },
                "metallicFactor" : 0,
                "roughnessFactor" : 0.20000000298023224
            }
        },
        {
            "doubleSided" : true,
            "name" : "Material.001",
            "normalTexture" : {
                "index" : 10,
                "texCoord" : 0
            },
            "pbrMetallicRoughness" : {
                "baseColorTexture" : {
                    "index" : 11,
                    "texCoord" : 0
                },
                "metallicFactor" : 0,
                "roughnessFactor" : 0.20000000298023224
            }
        }
    ],
    "meshes" : [
        {
            "name" : "Object_1.003",
            "primitives" : [
                {
                    "attributes" : {
                        "POSITION" : 0,
                        "NORMAL" : 1,
                        "TEXCOORD_0" : 2
                    },
                    "indices" : 3,
                    "material" : 0
                }
            ]
        },
        {
            "name" : "Object_1.002",
            "primitives" : [
                {
                    "attributes" : {
                        "POSITION" : 4,
                        "NORMAL" : 5,
                        "TEXCOORD_0" : 6
                    },
                    "indices" : 7,
                    "material" : 1
                }
            ]
        },
        {
            "name" : "Object_1.001",
            "primitives" : [
                {
                    "attributes" : {
                        "POSITION" : 8,
                        "NORMAL" : 9,
                        "TEXCOORD_0" : 10
                    },
                    "indices" : 11,
                    "material" : 2
                }
            ]
        },
        {
            "name" : "Object_3",
            "primitives" : [
                {
                    "attributes" : {
                        "POSITION" : 12,
                        "NORMAL" : 13,
                        "TEXCOORD_0" : 14
                    },
                    "indices" : 15,
                    "material" : 3
                }
            ]
        },
        {
            "name" : "Object_2",
            "primitives" : [
                {
                    "attributes" : {
                        "POSITION" : 16,
                        "NORMAL" : 17,
                        "TEXCOORD_0" : 18
                    },
                    "indices" : 19,
                    "material" : 4
                }
            ]
        },
        {
            "name" : "Object_1",
            "primitives" : [
                {
                    "attributes" : {
                        "POSITION" : 20,
                        "NORMAL" : 21,
                        "TEXCOORD_0" : 22
                    },
                    "indices" : 19,
                    "material" : 5
                }
            ]
        }
    ],
    "textures" : [
        {
            "source" : 0
        },
        {
            "source" : 1
        },
        {
            "source" : 0
        },
        {
            "source" : 1
        },
        {
            "source" : 0
        },
        {
            "source" : 1
        },
        {
            "source" : 0
        },
        {
            "source" : 1
        },
        {
            "source" : 2
        },
        {
            "source" : 3
        },
        {
            "source" : 2
        },
        {
            "source" : 3
        }
    ],
    "images" : [
        {
            "mimeType" : "image/png",
            "name" : "T-43_NM",
            "uri" : "T-43_NM.png"
        },
        {
            "mimeType" : "image/png",
            "name" : "T-43",
            "uri" : "T-43.png"
        },
        {
            "mimeType" : "image/png",
            "name" : "Track_NM",
            "uri" : "Track_NM.png"
        },
        {
            "mimeType" : "image/png",
            "name" : "Track",
            "uri" : "Track.png"
        }
    ],
    "accessors" : [
        {
            "bufferView" : 0,
            "componentType" : 5126,
            "count" : 836,
            "max" : [
                0.479209303855896,
                0.31828951835632324,
                4.0342559814453125
            ],
            "min" : [
                -0.33798643946647644,
                -0.3183700144290924,
                -0.12183655798435211
            ],
            "type" : "VEC3"
        },
        {
            "bufferView" : 1,
            "componentType" : 5126,
            "count" : 836,
            "type" : "VEC3"
        },
        {
            "bufferView" : 2,
            "componentType" : 5126,
            "count" : 836,
            "type" : "VEC2"
        },
        {
            "bufferView" : 3,
            "componentType" : 5123,
            "count" : 846,
            "type" : "SCALAR"
        },
        {
            "bufferView" : 4,
            "componentType" : 5126,
            "count" : 4432,
            "max" : [
                1.0496965646743774,
                2.1589441299438477,
                1.4083842039108276
            ],
            "min" : [
                -1.0731984376907349,
                -0.0022620009258389473,
                -1.3612160682678223
            ],
            "type" : "VEC3"
        },
        {
            "bufferView" : 5,
            "componentType" : 5126,
            "count" : 4432,
            "type" : "VEC3"
        },
        {
            "bufferView" : 6,
            "componentType" : 5126,
            "count" : 4432,
            "type" : "VEC2"
        },
        {
            "bufferView" : 7,
            "componentType" : 5123,
            "count" : 4488,
            "type" : "SCALAR"
        },
        {
            "bufferView" : 8,
            "componentType" : 5126,
            "count" : 7569,
            "max" : [
                1.3702771663665771,
                0.8466885089874268,
                2.887317180633545
            ],
            "min" : [
                -1.3395179510116577,
                -0.42294150590896606,
                -3.0231337547302246
            ],
            "type" : "VEC3"
        },
        {
            "bufferView" : 9,
            "componentType" : 5126,
            "count" : 7569,
            "type" : "VEC3"
        },
        {
            "bufferView" : 10,
            "componentType" : 5126,
            "count" : 7569,
            "type" : "VEC2"
        },
        {
            "bufferView" : 11,
            "componentType" : 5123,
            "count" : 7608,
            "type" : "SCALAR"
        },
        {
            "bufferView" : 12,
            "componentType" : 5126,
            "count" : 8938,
            "max" : [
                1.2779432535171509,
                0.9979166984558105,
                2.7294273376464844
            ],
            "min" : [
                -1.2778346538543701,
                0.026930708438158035,
                -2.7721991539001465
            ],
            "type" : "VEC3"
        },
        {
            "bufferView" : 13,
            "componentType" : 5126,
            "count" : 8938,
            "type" : "VEC3"
        },
        {
            "bufferView" : 14,
            "componentType" : 5126,
            "count" : 8938,
            "type" : "VEC2"
        },
        {
            "bufferView" : 15,
            "componentType" : 5123,
            "count" : 9012,
            "type" : "SCALAR"
        },
        {
            "bufferView" : 16,
            "componentType" : 5126,
            "count" : 1008,
            "max" : [
                -0.8792657256126404,
                1.0351084470748901,
                2.7628653049468994
            ],
            "min" : [
                -1.3758320808410645,
                -0.002338523743674159,
                -2.8080825805664062
            ],
            "type" : "VEC3"
        },
        {
            "bufferView" : 17,
            "componentType" : 5126,
            "count" : 1008,
            "type" : "VEC3"
        },
        {
            "bufferView" : 18,
            "componentType" : 5126,
            "count" : 1008,
            "type" : "VEC2"
        },
        {
            "bufferView" : 19,
            "componentType" : 5123,
            "count" : 1008,
            "type" : "SCALAR"
        },
        {
            "bufferView" : 20,
            "componentType" : 5126,
            "count" : 1008,
            "max" : [
                1.3758320808410645,
                1.0351084470748901,
                2.7628653049468994
            ],
            "min" : [
                0.8792657256126404,
                -0.002338523743674159,
                -2.8080825805664062
            ],
            "type" : "VEC3"
        },
        {
            "bufferView" : 21,
            "componentType" : 5126,
            "count" : 1008,
            "type" : "VEC3"
        },
        {
            "bufferView" : 22,
            "componentType" : 5126,
            "count" : 1008,
            "type" : "VEC2"
        }
    ],
    "bufferViews" : [
        {
            "buffer" : 0,
            "byteLength" : 10032,
            "byteOffset" : 0
        },
        {
            "buffer" : 0,
            "byteLength" : 10032,
            "byteOffset" : 10032
        },
        {
            "buffer" : 0,
            "byteLength" : 6688,
            "byteOffset" : 20064
        },
        {
            "buffer" : 0,
            "byteLength" : 1692,
            "byteOffset" : 26752
        },
        {
            "buffer" : 0,
            "byteLength" : 53184,
            "byteOffset" : 28444
        },
        {
            "buffer" : 0,
            "byteLength" : 53184,
            "byteOffset" : 81628
        },
        {
            "buffer" : 0,
            "byteLength" : 35456,
            "byteOffset" : 134812
        },
        {
            "buffer" : 0,
            "byteLength" : 8976,
            "byteOffset" : 170268
        },
        {
            "buffer" : 0,
            "byteLength" : 90828,
            "byteOffset" : 179244
        },
        {
            "buffer" : 0,
            "byteLength" : 90828,
            "byteOffset" : 270072
        },
        {
            "buffer" : 0,
            "byteLength" : 60552,
            "byteOffset" : 360900
        },
        {
            "buffer" : 0,
            "byteLength" : 15216,
            "byteOffset" : 421452
        },
        {
            "buffer" : 0,
            "byteLength" : 107256,
            "byteOffset" : 436668
        },
        {
            "buffer" : 0,
            "byteLength" : 107256,
            "byteOffset" : 543924
        },
        {
            "buffer" : 0,
            "byteLength" : 71504,
            "byteOffset" : 651180
        },
        {
            "buffer" : 0,
            "byteLength" : 18024,
            "byteOffset" : 722684
        },
        {
            "buffer" : 0,
            "byteLength" : 12096,
            "byteOffset" : 740708
        },
        {
            "buffer" : 0,
            "byteLength" : 12096,
            "byteOffset" : 752804
        },
        {
            "buffer" : 0,
            "byteLength" : 8064,
            "byteOffset" : 764900
        },
        {
            "buffer" : 0,
            "byteLength" : 2016,
            "byteOffset" : 772964
        },
        {
            "buffer" : 0,
            "byteLength" : 12096,
            "byteOffset" : 774980
        },
        {
            "buffer" : 0,
            "byteLength" : 12096,
            "byteOffset" : 787076
        },
        {
            "buffer" : 0,
            "byteLength" : 8064,
            "byteOffset" : 799172
        }
    ],
    "buffers" : [
        {
            "byteLength" : 807236,
            "uri" : "T43_Full.bin"
        }
    ]
}
