{
    "asset" : {
        "generator" : "Khronos glTF Blender I/O v0.9.36",
        "version" : "2.0"
    },
    "scene" : 0,
    "scenes" : [
        {
            "name" : "Scene",
            "nodes" : [
                0,
                1
            ]
        }
    ],
    "nodes" : [
        {
            "mesh" : 0,
            "name" : "Object_1.001",
            "rotation" : [
                0,
                0,
                0,
                -1
            ],
            "translation" : [
                -0.04128161072731018,
                0.8615086078643799,
                0.8544754981994629
            ]
        },
        {
            "mesh" : 1,
            "name" : "Object_3",
            "rotation" : [
                0,
                1,
                0,
                -1.6292068494294654e-07
            ],
            "translation" : [
                -0.04128161072731018,
                0,
                0.8544754981994629
            ]
        }
    ],
    "materials" : [
        {
            "doubleSided" : true,
            "name" : "Material_1.001",
            "normalTexture" : {
                "index" : 0,
                "texCoord" : 0
            },
            "pbrMetallicRoughness" : {
                "baseColorTexture" : {
                    "index" : 1,
                    "texCoord" : 0
                },
                "metallicFactor" : 0,
                "roughnessFactor" : 1
            }
        },
        {
            "doubleSided" : true,
            "name" : "Material_1",
            "normalTexture" : {
                "index" : 2,
                "texCoord" : 0
            },
            "pbrMetallicRoughness" : {
                "baseColorTexture" : {
                    "index" : 3,
                    "texCoord" : 0
                },
                "metallicFactor" : 0,
                "roughnessFactor" : 1
            }
        }
    ],
    "meshes" : [
        {
            "name" : "Object_1.001",
            "primitives" : [
                {
                    "attributes" : {
                        "POSITION" : 0,
                        "NORMAL" : 1,
                        "TEXCOORD_0" : 2
                    },
                    "indices" : 3,
                    "material" : 0
                }
            ]
        },
        {
            "name" : "Object_3",
            "primitives" : [
                {
                    "attributes" : {
                        "POSITION" : 4,
                        "NORMAL" : 5,
                        "TEXCOORD_0" : 6
                    },
                    "indices" : 7,
                    "material" : 1
                }
            ]
        }
    ],
    "textures" : [
        {
            "source" : 0
        },
        {
            "source" : 1
        },
        {
            "source" : 0
        },
        {
            "source" : 1
        }
    ],
    "images" : [
        {
            "mimeType" : "image/png",
            "name" : "T-43_NM",
            "uri" : "T-43_NM.png"
        },
        {
            "mimeType" : "image/png",
            "name" : "T-43",
            "uri" : "T-43.png"
        }
    ],
    "accessors" : [
        {
            "bufferView" : 0,
            "componentType" : 5126,
            "count" : 7569,
            "max" : [
                1.3702771663665771,
                0.8466885089874268,
                2.887317180633545
            ],
            "min" : [
                -1.3395179510116577,
                -0.42294150590896606,
                -3.0231337547302246
            ],
            "type" : "VEC3"
        },
        {
            "bufferView" : 1,
            "componentType" : 5126,
            "count" : 7569,
            "type" : "VEC3"
        },
        {
            "bufferView" : 2,
            "componentType" : 5126,
            "count" : 7569,
            "type" : "VEC2"
        },
        {
            "bufferView" : 3,
            "componentType" : 5123,
            "count" : 7608,
            "type" : "SCALAR"
        },
        {
            "bufferView" : 4,
            "componentType" : 5126,
            "count" : 8938,
            "max" : [
                1.2779432535171509,
                0.9979166984558105,
                2.7294273376464844
            ],
            "min" : [
                -1.2778346538543701,
                0.026930708438158035,
                -2.7721991539001465
            ],
            "type" : "VEC3"
        },
        {
            "bufferView" : 5,
            "componentType" : 5126,
            "count" : 8938,
            "type" : "VEC3"
        },
        {
            "bufferView" : 6,
            "componentType" : 5126,
            "count" : 8938,
            "type" : "VEC2"
        },
        {
            "bufferView" : 7,
            "componentType" : 5123,
            "count" : 9012,
            "type" : "SCALAR"
        }
    ],
    "bufferViews" : [
        {
            "buffer" : 0,
            "byteLength" : 90828,
            "byteOffset" : 0
        },
        {
            "buffer" : 0,
            "byteLength" : 90828,
            "byteOffset" : 90828
        },
        {
            "buffer" : 0,
            "byteLength" : 60552,
            "byteOffset" : 181656
        },
        {
            "buffer" : 0,
            "byteLength" : 15216,
            "byteOffset" : 242208
        },
        {
            "buffer" : 0,
            "byteLength" : 107256,
            "byteOffset" : 257424
        },
        {
            "buffer" : 0,
            "byteLength" : 107256,
            "byteOffset" : 364680
        },
        {
            "buffer" : 0,
            "byteLength" : 71504,
            "byteOffset" : 471936
        },
        {
            "buffer" : 0,
            "byteLength" : 18024,
            "byteOffset" : 543440
        }
    ],
    "buffers" : [
        {
            "byteLength" : 561464,
            "uri" : "T43_Body.bin"
        }
    ]
}
