{
    "asset" : {
        "generator" : "Khronos glTF Blender I/O v0.9.36",
        "version" : "2.0"
    },
    "scene" : 0,
    "scenes" : [
        {
            "name" : "Scene",
            "nodes" : [
                0
            ]
        }
    ],
    "nodes" : [
        {
            "mesh" : 0,
            "name" : "Object_1.002",
            "rotation" : [
                0,
                0,
                0,
                -1
            ],
            "translation" : [
                -0.04128167778253555,
                0,
                0
            ]
        }
    ],
    "materials" : [
        {
            "doubleSided" : true,
            "name" : "Material_1.002",
            "normalTexture" : {
                "index" : 0,
                "texCoord" : 0
            },
            "pbrMetallicRoughness" : {
                "baseColorTexture" : {
                    "index" : 1,
                    "texCoord" : 0
                },
                "metallicFactor" : 0,
                "roughnessFactor" : 1
            }
        }
    ],
    "meshes" : [
        {
            "name" : "Object_1.002",
            "primitives" : [
                {
                    "attributes" : {
                        "POSITION" : 0,
                        "NORMAL" : 1,
                        "TEXCOORD_0" : 2
                    },
                    "indices" : 3,
                    "material" : 0
                }
            ]
        }
    ],
    "textures" : [
        {
            "source" : 0
        },
        {
            "source" : 1
        }
    ],
    "images" : [
        {
            "mimeType" : "image/png",
            "name" : "T-43_NM",
            "uri" : "T-43_NM.png"
        },
        {
            "mimeType" : "image/png",
            "name" : "T-43",
            "uri" : "T-43.png"
        }
    ],
    "accessors" : [
        {
            "bufferView" : 0,
            "componentType" : 5126,
            "count" : 4432,
            "max" : [
                1.0496965646743774,
                2.1589441299438477,
                1.4083842039108276
            ],
            "min" : [
                -1.0731984376907349,
                -0.0022620009258389473,
                -1.3612160682678223
            ],
            "type" : "VEC3"
        },
        {
            "bufferView" : 1,
            "componentType" : 5126,
            "count" : 4432,
            "type" : "VEC3"
        },
        {
            "bufferView" : 2,
            "componentType" : 5126,
            "count" : 4432,
            "type" : "VEC2"
        },
        {
            "bufferView" : 3,
            "componentType" : 5123,
            "count" : 4488,
            "type" : "SCALAR"
        }
    ],
    "bufferViews" : [
        {
            "buffer" : 0,
            "byteLength" : 53184,
            "byteOffset" : 0
        },
        {
            "buffer" : 0,
            "byteLength" : 53184,
            "byteOffset" : 53184
        },
        {
            "buffer" : 0,
            "byteLength" : 35456,
            "byteOffset" : 106368
        },
        {
            "buffer" : 0,
            "byteLength" : 8976,
            "byteOffset" : 141824
        }
    ],
    "buffers" : [
        {
            "byteLength" : 150800,
            "uri" : "T43_Turret.bin"
        }
    ]
}
