{
    "asset" : {
        "generator" : "Khronos glTF Blender I/O v0.9.36",
        "version" : "2.0"
    },
    "scene" : 0,
    "scenes" : [
        {
            "name" : "Scene",
            "nodes" : [
                1
            ]
        }
    ],
    "nodes" : [
        {
            "mesh" : 0,
            "name" : "leaves",
            "rotation" : [
                0.7071067690849304,
                0,
                0,
                0.7071067690849304
            ],
            "scale" : [
                0.6000000238418579,
                0.6000000238418579,
                0.6000000238418579
            ]
        },
        {
            "children" : [
                0
            ],
            "mesh" : 1,
            "name" : "tree",
            "rotation" : [
                0.7071067690849304,
                0,
                0,
                0.7071067690849304
            ],
            "scale" : [
                0.6000000238418579,
                0.6000000238418579,
                0.6000000238418579
            ]
        }
    ],
    "materials" : [
        {
            "alphaCutoff" : 0.5,
            "alphaMode" : "MASK",
            "doubleSided" : true,
            "name" : "leaves",
            "pbrMetallicRoughness" : {
                "baseColorTexture" : {
                    "index" : 0,
                    "texCoord" : 0
                },
                "metallicFactor" : 0,
                "roughnessFactor" : 0.5
            }
        },
        {
            "doubleSided" : true,
            "name" : "Material.001",
            "normalTexture" : {
                "index" : 1,
                "texCoord" : 0
            },
            "pbrMetallicRoughness" : {
                "baseColorTexture" : {
                    "index" : 2,
                    "texCoord" : 0
                },
                "metallicFactor" : 0,
                "roughnessFactor" : 0.4000000059604645
            }
        }
    ],
    "meshes" : [
        {
            "name" : "leaves",
            "primitives" : [
                {
                    "attributes" : {
                        "POSITION" : 0,
                        "NORMAL" : 1,
                        "TEXCOORD_0" : 2
                    },
                    "indices" : 3,
                    "material" : 0
                }
            ]
        },
        {
            "name" : "tree",
            "primitives" : [
                {
                    "attributes" : {
                        "POSITION" : 4,
                        "NORMAL" : 5,
                        "TEXCOORD_0" : 6
                    },
                    "indices" : 7,
                    "material" : 1
                }
            ]
        }
    ],
    "textures" : [
        {
            "source" : 0
        },
        {
            "source" : 1
        },
        {
            "source" : 2
        }
    ],
    "images" : [
        {
            "mimeType" : "image/png",
            "name" : "leaves",
            "uri" : "leaves.png"
        },
        {
            "mimeType" : "image/png",
            "name" : "normal",
            "uri" : "normal.png"
        },
        {
            "mimeType" : "image/png",
            "name" : "diffuse",
            "uri" : "diffuse.png"
        }
    ],
    "accessors" : [
        {
            "bufferView" : 0,
            "componentType" : 5126,
            "count" : 3846,
            "max" : [
                2.9252560138702393,
                2.971986770629883,
                -3.0221171379089355
            ],
            "min" : [
                -2.9544262886047363,
                -2.9494240283966064,
                -12.914165496826172
            ],
            "type" : "VEC3"
        },
        {
            "bufferView" : 1,
            "componentType" : 5126,
            "count" : 3846,
            "type" : "VEC3"
        },
        {
            "bufferView" : 2,
            "componentType" : 5126,
            "count" : 3846,
            "type" : "VEC2"
        },
        {
            "bufferView" : 3,
            "componentType" : 5123,
            "count" : 3864,
            "type" : "SCALAR"
        },
        {
            "bufferView" : 4,
            "componentType" : 5126,
            "count" : 2250,
            "max" : [
                2.0058069229125977,
                2.212233781814575,
                0.290958046913147
            ],
            "min" : [
                -2.197162628173828,
                -2.1156556606292725,
                -12.144487380981445
            ],
            "type" : "VEC3"
        },
        {
            "bufferView" : 5,
            "componentType" : 5126,
            "count" : 2250,
            "type" : "VEC3"
        },
        {
            "bufferView" : 6,
            "componentType" : 5126,
            "count" : 2250,
            "type" : "VEC2"
        },
        {
            "bufferView" : 7,
            "componentType" : 5123,
            "count" : 8124,
            "type" : "SCALAR"
        }
    ],
    "bufferViews" : [
        {
            "buffer" : 0,
            "byteLength" : 46152,
            "byteOffset" : 0
        },
        {
            "buffer" : 0,
            "byteLength" : 46152,
            "byteOffset" : 46152
        },
        {
            "buffer" : 0,
            "byteLength" : 30768,
            "byteOffset" : 92304
        },
        {
            "buffer" : 0,
            "byteLength" : 7728,
            "byteOffset" : 123072
        },
        {
            "buffer" : 0,
            "byteLength" : 27000,
            "byteOffset" : 130800
        },
        {
            "buffer" : 0,
            "byteLength" : 27000,
            "byteOffset" : 157800
        },
        {
            "buffer" : 0,
            "byteLength" : 18000,
            "byteOffset" : 184800
        },
        {
            "buffer" : 0,
            "byteLength" : 16248,
            "byteOffset" : 202800
        }
    ],
    "buffers" : [
        {
            "byteLength" : 219048,
            "uri" : "Tree.bin"
        }
    ]
}
